# xmcd
#
# Track frame offsets:
#	150
#	11841
#	26067
#	39364
#	54077
#	65723
#	77397
#	90560
#	101931
#	111881
#	124841
#	136369
#	150290
#	163586
#	175745
#	187218
#	198801
#	208563
#	220257
#	229622
#	244871
#	254065
#	266694
#	280517
#
# Disc length: 3877 seconds
#
# Revision: 1
# Processed by: cddbd v1.5.2PL0 Copyright (c) Steve Scherf et al.
# Submitted via: audiograbber 1.83.01
#
DISCID=4d0f2318
DTITLE=Various Artist - Record 99 and 100 - Country Songs Of Work
DYEAR=1900
DGENRE=
TTITLE0=Joe Stampley - Roll On Big Mama
TTITLE1=Red Simpson - I'm A Truck
TTITLE2=Cliff Bruner - Truck Driver's Blues
TTITLE3=Dick Curless - A Tombstone Every Mile
TTITLE4=Willis Brothers - Give Me 40 Acres (To Turn This Rig Around)
TTITLE5=Charlie Rich - Big Boss Man
TTITLE6=Leroy Van Dyke - The Auctioneer
TTITLE7=Frankie Miller - Black Land Farmer
TTITLE8=Jimmie Dean - The Famer And The Lord
TTITLE9=Bill Anderson - Get A Little Dirt On Your Hands
TTITLE10=Roy Clark - I Never Picked Cotton
TTITLE11=Glen Campbell - Whichita Lineman
TTITLE12=Grandpa And Ramona Jones - Dark As A Dungeon
TTITLE13=Merle Travis - Nine Pound Hammer
TTITLE14=Dixon Brothers - Weave Room Blues
TTITLE15=Dave Mccarn - Coton Mill Colic
TTITLE16=Dave Dudley - Last Day In The Mines
TTITLE17=Billy Edd Wheeler - Coal Tattoo
TTITLE18=Norma Jean - Heaven Help A Working Girl
TTITLE19=Bill Anderson - Country Deejay
TTITLE20=Dolly Parton - Washday Blues
TTITLE21=Callahan Brothers - John Henry
TTITLE22=Billie Jo Spears - Mr. Walker It's All Over
TTITLE23=Jody Miller - Queen Of The House
EXTD=
EXTT0=
EXTT1=
EXTT2=
EXTT3=
EXTT4=
EXTT5=
EXTT6=
EXTT7=
EXTT8=
EXTT9=
EXTT10=
EXTT11=
EXTT12=
EXTT13=
EXTT14=
EXTT15=
EXTT16=
EXTT17=
EXTT18=
EXTT19=
EXTT20=
EXTT21=
EXTT22=
EXTT23=
PLAYORDER=
